# xmcd
#
# Track frame offsets:
#	150
#	18327
#	56772
#	68986
#	95776
#	113141
#	137137
#	149785
#	170596
#	191364
#	224732
#	246679
#	267315
#	287287
#	308400
#
# Disc length: 4332 seconds
#
# Revision: 6
# Processed by: cddbd v1.5.2PL0 Copyright (c) Steve Scherf et al.
# Submitted via: EZCDAudioConverter 2.1.7.1
#
DISCID=f110ea0f
DTITLE=V/A - Leonard Cohen Covered
DYEAR=2012
DGENRE=MOJO
TTITLE0=Field Music - Suzanne
TTITLE1=Emily Barker and The Red Clay Halo - Master Song
TTITLE2=Palace Songs - Winter Lady
TTITLE3=Miserable Rich - The Stranger Song
TTITLE4=Liz Green - Sisters Of Mercy
TTITLE5=Bill Callahan - So Long Marianne
TTITLE6=Michael Kiwanuka - Hey, That's No Way To Say Goodbye
TTITLE7=The Low Anthem - Stories Of The Street
TTITLE8=Cass McCombs - Teachers
TTITLE9=Father John Misty - One Of Us Cannot Be Wrong
TTITLE10=Diagrams - Famous Blue Raincoat
TTITLE11=Paper Dollhouse - Last Year's Man
TTITLE12=Marc Ribot and My Brightest Diamond - Bird On A Wire
TTITLE13=Dan Michaelson - Avalanche
TTITLE14=Scott Matthews - Seems So Long Ago, Nancy
EXTD=
EXTT0=
EXTT1=
EXTT2=
EXTT3=
EXTT4=
EXTT5=
EXTT6=
EXTT7=
EXTT8=
EXTT9=
EXTT10=
EXTT11=
EXTT12=
EXTT13=
EXTT14=
PLAYORDER=
